<svg id="visual" viewBox="0 0 1440 900" width="1440" height="900" xmlns="http://www.w3.org/2000/svg" xmlns:xlink="http://www.w3.org/1999/xlink" version="1.1"><rect x="0" y="0" width="1440" height="900" fill="#F6F7F7"></rect><defs><linearGradient id="grad1_0" x1="37.5%" y1="0%" x2="100%" y2="100%"><stop offset="17.999999999999996%" stop-color="#f6f7f7" stop-opacity="1"></stop><stop offset="82%" stop-color="#f6f7f7" stop-opacity="1"></stop></linearGradient></defs><defs><linearGradient id="grad2_0" x1="0%" y1="0%" x2="62.5%" y2="100%"><stop offset="17.999999999999996%" stop-color="#f6f7f7" stop-opacity="1"></stop><stop offset="82%" stop-color="#f6f7f7" stop-opacity="1"></stop></linearGradient></defs><g transform="translate(1440, 0)"><path d="M0 382.1C-37.1 342.2 -74.2 302.3 -118.2 285.5C-162.3 268.6 -213.2 274.9 -256 256C-298.7 237.1 -333.3 193.1 -353 146.2C-372.6 99.4 -377.4 49.7 -382.1 0L0 0Z" fill="#3E0204"></path></g><g transform="translate(0, 900)"><path d="M0 -382.1C40.3 -355.8 80.5 -329.6 130.9 -316C181.2 -302.3 241.7 -301.3 270.2 -270.2C298.7 -239.1 295.2 -177.9 308.6 -127.8C321.9 -77.8 352 -38.9 382.1 0L0 0Z" fill="#3E0204"></path></g></svg>