<svg xmlns="http://www.w3.org/2000/svg" xmlns:xlink="http://www.w3.org/1999/xlink" viewBox="0,0,256,256" width="30px" height="30px" fill-rule="nonzero"><g fill="#520202" fill-rule="nonzero" stroke="none" stroke-width="1" stroke-linecap="butt" stroke-linejoin="miter" stroke-miterlimit="10" stroke-dasharray="" stroke-dashoffset="0" font-family="none" font-weight="none" font-size="none" text-anchor="none" style="mix-blend-mode: normal"><g transform="scale(8.53333,8.53333)"><path d="M14.94336,3.99414c-0.02024,0.00134 -0.04043,0.00329 -0.06055,0.00586h-0.11914l-0.09375,0.04688c-0.08652,0.02904 -0.16867,0.06978 -0.24414,0.12109l-4.01758,2.00977l-4.23047,4.23047l-2,3.99805c-0.05845,0.08312 -0.1039,0.17467 -0.13477,0.27148l-0.04297,0.08594v0.10938c-0.00873,0.07592 -0.00873,0.15259 0,0.22851v8.20899l0.18945,0.26172c0.16446,0.22789 0.34992,0.45539 0.56641,0.67188c1.042,1.042 2.41298,1.57365 3.92578,1.70703c0.10278,0.03337 0.2103,0.04986 0.31836,0.04883h15.84766c0.08643,0.01471 0.17443,0.018 0.26172,0.00977c0.02355,-0.00242 0.047,-0.00568 0.07031,-0.00977h0.82031v-0.82422c0.01806,-0.10863 0.01806,-0.2195 0,-0.32812v-15.84766c0.00103,-0.10806 -0.01546,-0.21557 -0.04883,-0.31836c-0.13343,-1.51272 -0.66514,-2.88354 -1.70703,-3.92578h-0.00195v-0.00195c-0.21608,-0.21488 -0.44235,-0.39884 -0.66797,-0.5625l-0.26367,-0.19141h-8.2207c-0.04862,-0.00553 -0.09758,-0.00749 -0.14649,-0.00586zM18.60938,6h4.01758c0.0679,0.05728 0.14443,0.11158 0.20508,0.17188c0.73175,0.73305 1.12755,1.7821 1.16406,3.06055zM14.95703,6.14063l1.80859,1.08398l-0.70117,4.29687l-1.77148,1.77149l-2.77148,2.77148l-4.29687,0.70117l-1.08398,-1.80859l1.68164,-3.36523l3.76953,-3.76953zM18.61133,8.33203l3.39063,2.03516l-3.80078,0.47461zM23.5332,12.19141c-0.58381,1.87858 -1.72474,3.92444 -3.36914,5.83203l-1.8125,-5.18555zM16.58203,13.83203l1.47656,4.22656l-4.22656,-1.47656l1.875,-1.875zM24,16.0625v6.52344l-2.76367,-2.76367c1.1038,-1.20393 2.02934,-2.47255 2.76367,-3.75977zM10.8418,18.20117l-0.47461,3.80078l-2.03516,-3.39062zM12.83789,18.35156l5.18359,1.8125c-1.90701,1.6436 -3.95188,2.78547 -5.83008,3.36914zM6,18.60938l3.23242,5.38672c-1.27992,-0.03652 -2.32962,-0.43314 -3.0625,-1.16602c-0.0595,-0.0595 -0.11323,-0.13594 -0.16992,-0.20312zM19.82227,21.23633l2.76367,2.76367h-6.52344c1.28728,-0.7344 2.55597,-1.66 3.75977,-2.76367z"></path></g></g></svg>